%FSLAX45Y45*%
G04 Gerber Fmt 4.5, Leading zero omitted, Abs format (unit mm)*
G04 Created by KiCad (PCBNEW (5.1.6)-1) date 2022-03-07 17:14:07*
%MOMM*%
%LPD*%
G01*
G04 APERTURE LIST*
%TA.AperFunction,Profile*%
%ADD10C,0.050000*%
%TD*%
%ADD11C,0.200000*%
%ADD12C,0.300000*%
G04 APERTURE END LIST*
D10*
X9550400Y-7112000D02*
X20777200Y-7112000D01*
X9550400Y-7137400D02*
X9550400Y-7112000D01*
X9550400Y-7848600D02*
X9550400Y-7137400D01*
X9347200Y-7848600D02*
X9550400Y-7848600D01*
X9347200Y-9144000D02*
X9347200Y-7848600D01*
X20980400Y-9144000D02*
X9347200Y-9144000D01*
X20980400Y-7848600D02*
X20980400Y-9144000D01*
X20777200Y-7848600D02*
X20980400Y-7848600D01*
X20777200Y-7112000D02*
X20777200Y-7848600D01*
D11*
X9775190Y-8364220D02*
X9884410Y-8473440D01*
X9884410Y-8364220D02*
X9775190Y-8473440D01*
X9775190Y-8849360D02*
X9884410Y-8958580D01*
X9884410Y-8849360D02*
X9775190Y-8958580D01*
X10029190Y-8364220D02*
X10138410Y-8473440D01*
X10138410Y-8364220D02*
X10029190Y-8473440D01*
X10029190Y-8849360D02*
X10138410Y-8958580D01*
X10138410Y-8849360D02*
X10029190Y-8958580D01*
X10283190Y-8364220D02*
X10392410Y-8473440D01*
X10392410Y-8364220D02*
X10283190Y-8473440D01*
X10283190Y-8849360D02*
X10392410Y-8958580D01*
X10392410Y-8849360D02*
X10283190Y-8958580D01*
X10537190Y-8364220D02*
X10646410Y-8473440D01*
X10646410Y-8364220D02*
X10537190Y-8473440D01*
X10537190Y-8849360D02*
X10646410Y-8958580D01*
X10646410Y-8849360D02*
X10537190Y-8958580D01*
X10791190Y-8364220D02*
X10900410Y-8473440D01*
X10900410Y-8364220D02*
X10791190Y-8473440D01*
X10791190Y-8849360D02*
X10900410Y-8958580D01*
X10900410Y-8849360D02*
X10791190Y-8958580D01*
X11045190Y-8364220D02*
X11154410Y-8473440D01*
X11154410Y-8364220D02*
X11045190Y-8473440D01*
X11045190Y-8849360D02*
X11154410Y-8958580D01*
X11154410Y-8849360D02*
X11045190Y-8958580D01*
X11299190Y-8364220D02*
X11408410Y-8473440D01*
X11408410Y-8364220D02*
X11299190Y-8473440D01*
X11299190Y-8849360D02*
X11408410Y-8958580D01*
X11408410Y-8849360D02*
X11299190Y-8958580D01*
X11553190Y-8364220D02*
X11662410Y-8473440D01*
X11662410Y-8364220D02*
X11553190Y-8473440D01*
X11553190Y-8849360D02*
X11662410Y-8958580D01*
X11662410Y-8849360D02*
X11553190Y-8958580D01*
X11807190Y-8364220D02*
X11916410Y-8473440D01*
X11916410Y-8364220D02*
X11807190Y-8473440D01*
X11807190Y-8849360D02*
X11916410Y-8958580D01*
X11916410Y-8849360D02*
X11807190Y-8958580D01*
X12061190Y-8364220D02*
X12170410Y-8473440D01*
X12170410Y-8364220D02*
X12061190Y-8473440D01*
X12061190Y-8849360D02*
X12170410Y-8958580D01*
X12170410Y-8849360D02*
X12061190Y-8958580D01*
X12315190Y-8364220D02*
X12424410Y-8473440D01*
X12424410Y-8364220D02*
X12315190Y-8473440D01*
X12315190Y-8849360D02*
X12424410Y-8958580D01*
X12424410Y-8849360D02*
X12315190Y-8958580D01*
X12569190Y-8364220D02*
X12678410Y-8473440D01*
X12678410Y-8364220D02*
X12569190Y-8473440D01*
X12569190Y-8849360D02*
X12678410Y-8958580D01*
X12678410Y-8849360D02*
X12569190Y-8958580D01*
X12823190Y-8364220D02*
X12932410Y-8473440D01*
X12932410Y-8364220D02*
X12823190Y-8473440D01*
X12823190Y-8849360D02*
X12932410Y-8958580D01*
X12932410Y-8849360D02*
X12823190Y-8958580D01*
X13077190Y-8364220D02*
X13186410Y-8473440D01*
X13186410Y-8364220D02*
X13077190Y-8473440D01*
X13077190Y-8849360D02*
X13186410Y-8958580D01*
X13186410Y-8849360D02*
X13077190Y-8958580D01*
X13331190Y-8364220D02*
X13440410Y-8473440D01*
X13440410Y-8364220D02*
X13331190Y-8473440D01*
X13331190Y-8849360D02*
X13440410Y-8958580D01*
X13440410Y-8849360D02*
X13331190Y-8958580D01*
X13585190Y-8364220D02*
X13694410Y-8473440D01*
X13694410Y-8364220D02*
X13585190Y-8473440D01*
X13585190Y-8849360D02*
X13694410Y-8958580D01*
X13694410Y-8849360D02*
X13585190Y-8958580D01*
X13839190Y-8364220D02*
X13948410Y-8473440D01*
X13948410Y-8364220D02*
X13839190Y-8473440D01*
X13839190Y-8849360D02*
X13948410Y-8958580D01*
X13948410Y-8849360D02*
X13839190Y-8958580D01*
X14093190Y-8364220D02*
X14202410Y-8473440D01*
X14202410Y-8364220D02*
X14093190Y-8473440D01*
X14093190Y-8849360D02*
X14202410Y-8958580D01*
X14202410Y-8849360D02*
X14093190Y-8958580D01*
X14347190Y-8364220D02*
X14456410Y-8473440D01*
X14456410Y-8364220D02*
X14347190Y-8473440D01*
X14347190Y-8849360D02*
X14456410Y-8958580D01*
X14456410Y-8849360D02*
X14347190Y-8958580D01*
X14601190Y-8364220D02*
X14710410Y-8473440D01*
X14710410Y-8364220D02*
X14601190Y-8473440D01*
X14601190Y-8849360D02*
X14710410Y-8958580D01*
X14710410Y-8849360D02*
X14601190Y-8958580D01*
X14855190Y-8364220D02*
X14964410Y-8473440D01*
X14964410Y-8364220D02*
X14855190Y-8473440D01*
X14855190Y-8849360D02*
X14964410Y-8958580D01*
X14964410Y-8849360D02*
X14855190Y-8958580D01*
X15109190Y-8364220D02*
X15218410Y-8473440D01*
X15218410Y-8364220D02*
X15109190Y-8473440D01*
X15109190Y-8849360D02*
X15218410Y-8958580D01*
X15218410Y-8849360D02*
X15109190Y-8958580D01*
X15363190Y-8364220D02*
X15472410Y-8473440D01*
X15472410Y-8364220D02*
X15363190Y-8473440D01*
X15363190Y-8849360D02*
X15472410Y-8958580D01*
X15472410Y-8849360D02*
X15363190Y-8958580D01*
X15617190Y-8364220D02*
X15726410Y-8473440D01*
X15726410Y-8364220D02*
X15617190Y-8473440D01*
X15617190Y-8849360D02*
X15726410Y-8958580D01*
X15726410Y-8849360D02*
X15617190Y-8958580D01*
X15871190Y-8364220D02*
X15980410Y-8473440D01*
X15980410Y-8364220D02*
X15871190Y-8473440D01*
X15871190Y-8849360D02*
X15980410Y-8958580D01*
X15980410Y-8849360D02*
X15871190Y-8958580D01*
X16125190Y-8364220D02*
X16234410Y-8473440D01*
X16234410Y-8364220D02*
X16125190Y-8473440D01*
X16125190Y-8849360D02*
X16234410Y-8958580D01*
X16234410Y-8849360D02*
X16125190Y-8958580D01*
X16379190Y-8364220D02*
X16488410Y-8473440D01*
X16488410Y-8364220D02*
X16379190Y-8473440D01*
X16379190Y-8849360D02*
X16488410Y-8958580D01*
X16488410Y-8849360D02*
X16379190Y-8958580D01*
X16633190Y-8364220D02*
X16742410Y-8473440D01*
X16742410Y-8364220D02*
X16633190Y-8473440D01*
X16633190Y-8849360D02*
X16742410Y-8958580D01*
X16742410Y-8849360D02*
X16633190Y-8958580D01*
X16887190Y-8364220D02*
X16996410Y-8473440D01*
X16996410Y-8364220D02*
X16887190Y-8473440D01*
X16887190Y-8849360D02*
X16996410Y-8958580D01*
X16996410Y-8849360D02*
X16887190Y-8958580D01*
X17141190Y-8364220D02*
X17250410Y-8473440D01*
X17250410Y-8364220D02*
X17141190Y-8473440D01*
X17141190Y-8849360D02*
X17250410Y-8958580D01*
X17250410Y-8849360D02*
X17141190Y-8958580D01*
X17395190Y-8364220D02*
X17504410Y-8473440D01*
X17504410Y-8364220D02*
X17395190Y-8473440D01*
X17395190Y-8849360D02*
X17504410Y-8958580D01*
X17504410Y-8849360D02*
X17395190Y-8958580D01*
X17649190Y-8364220D02*
X17758410Y-8473440D01*
X17758410Y-8364220D02*
X17649190Y-8473440D01*
X17649190Y-8849360D02*
X17758410Y-8958580D01*
X17758410Y-8849360D02*
X17649190Y-8958580D01*
X17903190Y-8364220D02*
X18012410Y-8473440D01*
X18012410Y-8364220D02*
X17903190Y-8473440D01*
X17903190Y-8849360D02*
X18012410Y-8958580D01*
X18012410Y-8849360D02*
X17903190Y-8958580D01*
X18157190Y-8364220D02*
X18266410Y-8473440D01*
X18266410Y-8364220D02*
X18157190Y-8473440D01*
X18157190Y-8849360D02*
X18266410Y-8958580D01*
X18266410Y-8849360D02*
X18157190Y-8958580D01*
X18411190Y-8364220D02*
X18520410Y-8473440D01*
X18520410Y-8364220D02*
X18411190Y-8473440D01*
X18411190Y-8849360D02*
X18520410Y-8958580D01*
X18520410Y-8849360D02*
X18411190Y-8958580D01*
X18665190Y-8364220D02*
X18774410Y-8473440D01*
X18774410Y-8364220D02*
X18665190Y-8473440D01*
X18665190Y-8849360D02*
X18774410Y-8958580D01*
X18774410Y-8849360D02*
X18665190Y-8958580D01*
X18919190Y-8364220D02*
X19028410Y-8473440D01*
X19028410Y-8364220D02*
X18919190Y-8473440D01*
X18919190Y-8849360D02*
X19028410Y-8958580D01*
X19028410Y-8849360D02*
X18919190Y-8958580D01*
X19173190Y-8364220D02*
X19282410Y-8473440D01*
X19282410Y-8364220D02*
X19173190Y-8473440D01*
X19173190Y-8849360D02*
X19282410Y-8958580D01*
X19282410Y-8849360D02*
X19173190Y-8958580D01*
X19427190Y-8364220D02*
X19536410Y-8473440D01*
X19536410Y-8364220D02*
X19427190Y-8473440D01*
X19427190Y-8849360D02*
X19536410Y-8958580D01*
X19536410Y-8849360D02*
X19427190Y-8958580D01*
X19681190Y-8364220D02*
X19790410Y-8473440D01*
X19790410Y-8364220D02*
X19681190Y-8473440D01*
X19681190Y-8849360D02*
X19790410Y-8958580D01*
X19790410Y-8849360D02*
X19681190Y-8958580D01*
X19935190Y-8364220D02*
X20044410Y-8473440D01*
X20044410Y-8364220D02*
X19935190Y-8473440D01*
X19935190Y-8849360D02*
X20044410Y-8958580D01*
X20044410Y-8849360D02*
X19935190Y-8958580D01*
X20189190Y-8364220D02*
X20298410Y-8473440D01*
X20298410Y-8364220D02*
X20189190Y-8473440D01*
X20189190Y-8849360D02*
X20298410Y-8958580D01*
X20298410Y-8849360D02*
X20189190Y-8958580D01*
X20443190Y-8364220D02*
X20552410Y-8473440D01*
X20552410Y-8364220D02*
X20443190Y-8473440D01*
X20443190Y-8849360D02*
X20552410Y-8958580D01*
X20552410Y-8849360D02*
X20443190Y-8958580D01*
D12*
X9631128Y-9612214D02*
X9631128Y-9312214D01*
X9702557Y-9312214D01*
X9745414Y-9326500D01*
X9773986Y-9355072D01*
X9788271Y-9383643D01*
X9802557Y-9440786D01*
X9802557Y-9483643D01*
X9788271Y-9540786D01*
X9773986Y-9569357D01*
X9745414Y-9597929D01*
X9702557Y-9612214D01*
X9631128Y-9612214D01*
X9931128Y-9612214D02*
X9931128Y-9412214D01*
X9931128Y-9469357D02*
X9945414Y-9440786D01*
X9959700Y-9426500D01*
X9988271Y-9412214D01*
X10016843Y-9412214D01*
X10116843Y-9612214D02*
X10116843Y-9412214D01*
X10116843Y-9312214D02*
X10102557Y-9326500D01*
X10116843Y-9340786D01*
X10131128Y-9326500D01*
X10116843Y-9312214D01*
X10116843Y-9340786D01*
X10302557Y-9612214D02*
X10273986Y-9597929D01*
X10259700Y-9569357D01*
X10259700Y-9312214D01*
X10459700Y-9612214D02*
X10431128Y-9597929D01*
X10416843Y-9569357D01*
X10416843Y-9312214D01*
X10802557Y-9612214D02*
X10802557Y-9312214D01*
X10902557Y-9526500D01*
X11002557Y-9312214D01*
X11002557Y-9612214D01*
X11273986Y-9612214D02*
X11273986Y-9455072D01*
X11259700Y-9426500D01*
X11231128Y-9412214D01*
X11173986Y-9412214D01*
X11145414Y-9426500D01*
X11273986Y-9597929D02*
X11245414Y-9612214D01*
X11173986Y-9612214D01*
X11145414Y-9597929D01*
X11131128Y-9569357D01*
X11131128Y-9540786D01*
X11145414Y-9512214D01*
X11173986Y-9497929D01*
X11245414Y-9497929D01*
X11273986Y-9483643D01*
X11416843Y-9412214D02*
X11416843Y-9712214D01*
X11416843Y-9426500D02*
X11445414Y-9412214D01*
X11502557Y-9412214D01*
X11531128Y-9426500D01*
X11545414Y-9440786D01*
X11559700Y-9469357D01*
X11559700Y-9555072D01*
X11545414Y-9583643D01*
X11531128Y-9597929D01*
X11502557Y-9612214D01*
X11445414Y-9612214D01*
X11416843Y-9597929D01*
X11688271Y-9583643D02*
X11702557Y-9597929D01*
X11688271Y-9612214D01*
X11673986Y-9597929D01*
X11688271Y-9583643D01*
X11688271Y-9612214D01*
X11688271Y-9426500D02*
X11702557Y-9440786D01*
X11688271Y-9455072D01*
X11673986Y-9440786D01*
X11688271Y-9426500D01*
X11688271Y-9455072D01*
X9235480Y-10051890D02*
X9344700Y-10161110D01*
X9344700Y-10051890D02*
X9235480Y-10161110D01*
X9788271Y-10242214D02*
X9616843Y-10242214D01*
X9702557Y-10242214D02*
X9702557Y-9942214D01*
X9673986Y-9985072D01*
X9645414Y-10013643D01*
X9616843Y-10027929D01*
X9916843Y-10213643D02*
X9931128Y-10227929D01*
X9916843Y-10242214D01*
X9902557Y-10227929D01*
X9916843Y-10213643D01*
X9916843Y-10242214D01*
X10116843Y-9942214D02*
X10145414Y-9942214D01*
X10173986Y-9956500D01*
X10188271Y-9970786D01*
X10202557Y-9999357D01*
X10216843Y-10056500D01*
X10216843Y-10127929D01*
X10202557Y-10185072D01*
X10188271Y-10213643D01*
X10173986Y-10227929D01*
X10145414Y-10242214D01*
X10116843Y-10242214D01*
X10088271Y-10227929D01*
X10073986Y-10213643D01*
X10059700Y-10185072D01*
X10045414Y-10127929D01*
X10045414Y-10056500D01*
X10059700Y-9999357D01*
X10073986Y-9970786D01*
X10088271Y-9956500D01*
X10116843Y-9942214D01*
X10359700Y-10242214D02*
X10416843Y-10242214D01*
X10445414Y-10227929D01*
X10459700Y-10213643D01*
X10488271Y-10170786D01*
X10502557Y-10113643D01*
X10502557Y-9999357D01*
X10488271Y-9970786D01*
X10473986Y-9956500D01*
X10445414Y-9942214D01*
X10388271Y-9942214D01*
X10359700Y-9956500D01*
X10345414Y-9970786D01*
X10331128Y-9999357D01*
X10331128Y-10070786D01*
X10345414Y-10099357D01*
X10359700Y-10113643D01*
X10388271Y-10127929D01*
X10445414Y-10127929D01*
X10473986Y-10113643D01*
X10488271Y-10099357D01*
X10502557Y-10070786D01*
X10631128Y-10242214D02*
X10631128Y-10042214D01*
X10631128Y-10070786D02*
X10645414Y-10056500D01*
X10673986Y-10042214D01*
X10716843Y-10042214D01*
X10745414Y-10056500D01*
X10759700Y-10085072D01*
X10759700Y-10242214D01*
X10759700Y-10085072D02*
X10773986Y-10056500D01*
X10802557Y-10042214D01*
X10845414Y-10042214D01*
X10873986Y-10056500D01*
X10888271Y-10085072D01*
X10888271Y-10242214D01*
X11031128Y-10242214D02*
X11031128Y-10042214D01*
X11031128Y-10070786D02*
X11045414Y-10056500D01*
X11073986Y-10042214D01*
X11116843Y-10042214D01*
X11145414Y-10056500D01*
X11159700Y-10085072D01*
X11159700Y-10242214D01*
X11159700Y-10085072D02*
X11173986Y-10056500D01*
X11202557Y-10042214D01*
X11245414Y-10042214D01*
X11273986Y-10056500D01*
X11288271Y-10085072D01*
X11288271Y-10242214D01*
X11873986Y-9927929D02*
X11616843Y-10313643D01*
X12259700Y-9942214D02*
X12288271Y-9942214D01*
X12316843Y-9956500D01*
X12331128Y-9970786D01*
X12345414Y-9999357D01*
X12359700Y-10056500D01*
X12359700Y-10127929D01*
X12345414Y-10185072D01*
X12331128Y-10213643D01*
X12316843Y-10227929D01*
X12288271Y-10242214D01*
X12259700Y-10242214D01*
X12231128Y-10227929D01*
X12216843Y-10213643D01*
X12202557Y-10185072D01*
X12188271Y-10127929D01*
X12188271Y-10056500D01*
X12202557Y-9999357D01*
X12216843Y-9970786D01*
X12231128Y-9956500D01*
X12259700Y-9942214D01*
X12488271Y-10213643D02*
X12502557Y-10227929D01*
X12488271Y-10242214D01*
X12473986Y-10227929D01*
X12488271Y-10213643D01*
X12488271Y-10242214D01*
X12688271Y-9942214D02*
X12716843Y-9942214D01*
X12745414Y-9956500D01*
X12759700Y-9970786D01*
X12773986Y-9999357D01*
X12788271Y-10056500D01*
X12788271Y-10127929D01*
X12773986Y-10185072D01*
X12759700Y-10213643D01*
X12745414Y-10227929D01*
X12716843Y-10242214D01*
X12688271Y-10242214D01*
X12659700Y-10227929D01*
X12645414Y-10213643D01*
X12631128Y-10185072D01*
X12616843Y-10127929D01*
X12616843Y-10056500D01*
X12631128Y-9999357D01*
X12645414Y-9970786D01*
X12659700Y-9956500D01*
X12688271Y-9942214D01*
X13045414Y-10042214D02*
X13045414Y-10242214D01*
X12973986Y-9927929D02*
X12902557Y-10142214D01*
X13088271Y-10142214D01*
X13173986Y-9942214D02*
X13359700Y-9942214D01*
X13259700Y-10056500D01*
X13302557Y-10056500D01*
X13331128Y-10070786D01*
X13345414Y-10085072D01*
X13359700Y-10113643D01*
X13359700Y-10185072D01*
X13345414Y-10213643D01*
X13331128Y-10227929D01*
X13302557Y-10242214D01*
X13216843Y-10242214D01*
X13188271Y-10227929D01*
X13173986Y-10213643D01*
X13473986Y-9942214D02*
X13473986Y-9999357D01*
X13588271Y-9942214D02*
X13588271Y-9999357D01*
X14031128Y-10356500D02*
X14016843Y-10342214D01*
X13988271Y-10299357D01*
X13973986Y-10270786D01*
X13959700Y-10227929D01*
X13945414Y-10156500D01*
X13945414Y-10099357D01*
X13959700Y-10027929D01*
X13973986Y-9985072D01*
X13988271Y-9956500D01*
X14016843Y-9913643D01*
X14031128Y-9899357D01*
X14188271Y-10070786D02*
X14159700Y-10056500D01*
X14145414Y-10042214D01*
X14131128Y-10013643D01*
X14131128Y-9999357D01*
X14145414Y-9970786D01*
X14159700Y-9956500D01*
X14188271Y-9942214D01*
X14245414Y-9942214D01*
X14273986Y-9956500D01*
X14288271Y-9970786D01*
X14302557Y-9999357D01*
X14302557Y-10013643D01*
X14288271Y-10042214D01*
X14273986Y-10056500D01*
X14245414Y-10070786D01*
X14188271Y-10070786D01*
X14159700Y-10085072D01*
X14145414Y-10099357D01*
X14131128Y-10127929D01*
X14131128Y-10185072D01*
X14145414Y-10213643D01*
X14159700Y-10227929D01*
X14188271Y-10242214D01*
X14245414Y-10242214D01*
X14273986Y-10227929D01*
X14288271Y-10213643D01*
X14302557Y-10185072D01*
X14302557Y-10127929D01*
X14288271Y-10099357D01*
X14273986Y-10085072D01*
X14245414Y-10070786D01*
X14559700Y-9942214D02*
X14502557Y-9942214D01*
X14473986Y-9956500D01*
X14459700Y-9970786D01*
X14431128Y-10013643D01*
X14416843Y-10070786D01*
X14416843Y-10185072D01*
X14431128Y-10213643D01*
X14445414Y-10227929D01*
X14473986Y-10242214D01*
X14531128Y-10242214D01*
X14559700Y-10227929D01*
X14573986Y-10213643D01*
X14588271Y-10185072D01*
X14588271Y-10113643D01*
X14573986Y-10085072D01*
X14559700Y-10070786D01*
X14531128Y-10056500D01*
X14473986Y-10056500D01*
X14445414Y-10070786D01*
X14431128Y-10085072D01*
X14416843Y-10113643D01*
X14945414Y-10242214D02*
X14945414Y-9942214D01*
X15073986Y-10242214D02*
X15073986Y-10085072D01*
X15059700Y-10056500D01*
X15031128Y-10042214D01*
X14988271Y-10042214D01*
X14959700Y-10056500D01*
X14945414Y-10070786D01*
X15259700Y-10242214D02*
X15231128Y-10227929D01*
X15216843Y-10213643D01*
X15202557Y-10185072D01*
X15202557Y-10099357D01*
X15216843Y-10070786D01*
X15231128Y-10056500D01*
X15259700Y-10042214D01*
X15302557Y-10042214D01*
X15331128Y-10056500D01*
X15345414Y-10070786D01*
X15359700Y-10099357D01*
X15359700Y-10185072D01*
X15345414Y-10213643D01*
X15331128Y-10227929D01*
X15302557Y-10242214D01*
X15259700Y-10242214D01*
X15531128Y-10242214D02*
X15502557Y-10227929D01*
X15488271Y-10199357D01*
X15488271Y-9942214D01*
X15759700Y-10227929D02*
X15731128Y-10242214D01*
X15673986Y-10242214D01*
X15645414Y-10227929D01*
X15631128Y-10199357D01*
X15631128Y-10085072D01*
X15645414Y-10056500D01*
X15673986Y-10042214D01*
X15731128Y-10042214D01*
X15759700Y-10056500D01*
X15773986Y-10085072D01*
X15773986Y-10113643D01*
X15631128Y-10142214D01*
X15888271Y-10227929D02*
X15916843Y-10242214D01*
X15973986Y-10242214D01*
X16002557Y-10227929D01*
X16016843Y-10199357D01*
X16016843Y-10185072D01*
X16002557Y-10156500D01*
X15973986Y-10142214D01*
X15931128Y-10142214D01*
X15902557Y-10127929D01*
X15888271Y-10099357D01*
X15888271Y-10085072D01*
X15902557Y-10056500D01*
X15931128Y-10042214D01*
X15973986Y-10042214D01*
X16002557Y-10056500D01*
X16116843Y-10356500D02*
X16131128Y-10342214D01*
X16159700Y-10299357D01*
X16173986Y-10270786D01*
X16188271Y-10227929D01*
X16202557Y-10156500D01*
X16202557Y-10099357D01*
X16188271Y-10027929D01*
X16173986Y-9985072D01*
X16159700Y-9956500D01*
X16131128Y-9913643D01*
X16116843Y-9899357D01*
M02*
