%TF.GenerationSoftware,KiCad,Pcbnew,(5.1.6)-1*%
%TF.CreationDate,2022-03-07T17:14:04-05:00*%
%TF.ProjectId,A500-Side-90,41353030-2d53-4696-9465-2d39302e6b69,rev?*%
%TF.SameCoordinates,Original*%
%TF.FileFunction,Legend,Bot*%
%TF.FilePolarity,Positive*%
%FSLAX46Y46*%
G04 Gerber Fmt 4.6, Leading zero omitted, Abs format (unit mm)*
G04 Created by KiCad (PCBNEW (5.1.6)-1) date 2022-03-07 17:14:04*
%MOMM*%
%LPD*%
G01*
G04 APERTURE LIST*
%ADD10C,0.150000*%
G04 APERTURE END LIST*
D10*
X208779333Y-86399714D02*
X208588857Y-87066380D01*
X208398380Y-86590190D01*
X208207904Y-87066380D01*
X208017428Y-86399714D01*
X207636476Y-87066380D02*
X207636476Y-86399714D01*
X207636476Y-86066380D02*
X207684095Y-86114000D01*
X207636476Y-86161619D01*
X207588857Y-86114000D01*
X207636476Y-86066380D01*
X207636476Y-86161619D01*
X207160285Y-87066380D02*
X207160285Y-86399714D01*
X207160285Y-86590190D02*
X207112666Y-86494952D01*
X207065047Y-86447333D01*
X206969809Y-86399714D01*
X206874571Y-86399714D01*
X206160285Y-87018761D02*
X206255523Y-87066380D01*
X206446000Y-87066380D01*
X206541238Y-87018761D01*
X206588857Y-86923523D01*
X206588857Y-86542571D01*
X206541238Y-86447333D01*
X206446000Y-86399714D01*
X206255523Y-86399714D01*
X206160285Y-86447333D01*
X206112666Y-86542571D01*
X206112666Y-86637809D01*
X206588857Y-86733047D01*
X205826952Y-86399714D02*
X205446000Y-86399714D01*
X205684095Y-86066380D02*
X205684095Y-86923523D01*
X205636476Y-87018761D01*
X205541238Y-87066380D01*
X205446000Y-87066380D01*
X204684095Y-87066380D02*
X204684095Y-86542571D01*
X204731714Y-86447333D01*
X204826952Y-86399714D01*
X205017428Y-86399714D01*
X205112666Y-86447333D01*
X204684095Y-87018761D02*
X204779333Y-87066380D01*
X205017428Y-87066380D01*
X205112666Y-87018761D01*
X205160285Y-86923523D01*
X205160285Y-86828285D01*
X205112666Y-86733047D01*
X205017428Y-86685428D01*
X204779333Y-86685428D01*
X204684095Y-86637809D01*
X204207904Y-86399714D02*
X204207904Y-87399714D01*
X204207904Y-86447333D02*
X204112666Y-86399714D01*
X203922190Y-86399714D01*
X203826952Y-86447333D01*
X203779333Y-86494952D01*
X203731714Y-86590190D01*
X203731714Y-86875904D01*
X203779333Y-86971142D01*
X203826952Y-87018761D01*
X203922190Y-87066380D01*
X204112666Y-87066380D01*
X204207904Y-87018761D01*
X202541238Y-86685428D02*
X201779333Y-86685428D01*
X200588857Y-86161619D02*
X200541238Y-86114000D01*
X200446000Y-86066380D01*
X200207904Y-86066380D01*
X200112666Y-86114000D01*
X200065047Y-86161619D01*
X200017428Y-86256857D01*
X200017428Y-86352095D01*
X200065047Y-86494952D01*
X200636476Y-87066380D01*
X200017428Y-87066380D01*
X199398380Y-86066380D02*
X199303142Y-86066380D01*
X199207904Y-86114000D01*
X199160285Y-86161619D01*
X199112666Y-86256857D01*
X199065047Y-86447333D01*
X199065047Y-86685428D01*
X199112666Y-86875904D01*
X199160285Y-86971142D01*
X199207904Y-87018761D01*
X199303142Y-87066380D01*
X199398380Y-87066380D01*
X199493619Y-87018761D01*
X199541238Y-86971142D01*
X199588857Y-86875904D01*
X199636476Y-86685428D01*
X199636476Y-86447333D01*
X199588857Y-86256857D01*
X199541238Y-86161619D01*
X199493619Y-86114000D01*
X199398380Y-86066380D01*
X198684095Y-86161619D02*
X198636476Y-86114000D01*
X198541238Y-86066380D01*
X198303142Y-86066380D01*
X198207904Y-86114000D01*
X198160285Y-86161619D01*
X198112666Y-86256857D01*
X198112666Y-86352095D01*
X198160285Y-86494952D01*
X198731714Y-87066380D01*
X198112666Y-87066380D01*
X197731714Y-86161619D02*
X197684095Y-86114000D01*
X197588857Y-86066380D01*
X197350761Y-86066380D01*
X197255523Y-86114000D01*
X197207904Y-86161619D01*
X197160285Y-86256857D01*
X197160285Y-86352095D01*
X197207904Y-86494952D01*
X197779333Y-87066380D01*
X197160285Y-87066380D01*
%TO.C,BUS2*%
X98869428Y-79636952D02*
X98964666Y-79589333D01*
X99012285Y-79541714D01*
X99059904Y-79446476D01*
X99059904Y-79398857D01*
X99012285Y-79303619D01*
X98964666Y-79256000D01*
X98869428Y-79208380D01*
X98678952Y-79208380D01*
X98583714Y-79256000D01*
X98536095Y-79303619D01*
X98488476Y-79398857D01*
X98488476Y-79446476D01*
X98536095Y-79541714D01*
X98583714Y-79589333D01*
X98678952Y-79636952D01*
X98869428Y-79636952D01*
X98964666Y-79684571D01*
X99012285Y-79732190D01*
X99059904Y-79827428D01*
X99059904Y-80017904D01*
X99012285Y-80113142D01*
X98964666Y-80160761D01*
X98869428Y-80208380D01*
X98678952Y-80208380D01*
X98583714Y-80160761D01*
X98536095Y-80113142D01*
X98488476Y-80017904D01*
X98488476Y-79827428D01*
X98536095Y-79732190D01*
X98583714Y-79684571D01*
X98678952Y-79636952D01*
X97631333Y-79208380D02*
X97821809Y-79208380D01*
X97917047Y-79256000D01*
X97964666Y-79303619D01*
X98059904Y-79446476D01*
X98107523Y-79636952D01*
X98107523Y-80017904D01*
X98059904Y-80113142D01*
X98012285Y-80160761D01*
X97917047Y-80208380D01*
X97726571Y-80208380D01*
X97631333Y-80160761D01*
X97583714Y-80113142D01*
X97536095Y-80017904D01*
X97536095Y-79779809D01*
X97583714Y-79684571D01*
X97631333Y-79636952D01*
X97726571Y-79589333D01*
X97917047Y-79589333D01*
X98012285Y-79636952D01*
X98059904Y-79684571D01*
X98107523Y-79779809D01*
X205263714Y-79303619D02*
X205216095Y-79256000D01*
X205120857Y-79208380D01*
X204882761Y-79208380D01*
X204787523Y-79256000D01*
X204739904Y-79303619D01*
X204692285Y-79398857D01*
X204692285Y-79494095D01*
X204739904Y-79636952D01*
X205311333Y-80208380D01*
X204692285Y-80208380D01*
%TD*%
M02*
