M48
; DRILL file {KiCad (5.1.6)-1} date 03/07/22 17:14:06
; FORMAT={-:-/ absolute / metric / decimal}
; #@! TF.CreationDate,2022-03-07T17:14:06-05:00
; #@! TF.GenerationSoftware,Kicad,Pcbnew,(5.1.6)-1
; #@! TF.FileFunction,Plated,1,2,PTH
FMAT,2
METRIC
T1C1.092
%
G90
G05
T1
X98.298Y-84.188
X98.298Y-89.04
X100.838Y-84.188
X100.838Y-89.04
X103.378Y-84.188
X103.378Y-89.04
X105.918Y-84.188
X105.918Y-89.04
X108.458Y-84.188
X108.458Y-89.04
X110.998Y-84.188
X110.998Y-89.04
X113.538Y-84.188
X113.538Y-89.04
X116.078Y-84.188
X116.078Y-89.04
X118.618Y-84.188
X118.618Y-89.04
X121.158Y-84.188
X121.158Y-89.04
X123.698Y-84.188
X123.698Y-89.04
X126.238Y-84.188
X126.238Y-89.04
X128.778Y-84.188
X128.778Y-89.04
X131.318Y-84.188
X131.318Y-89.04
X133.858Y-84.188
X133.858Y-89.04
X136.398Y-84.188
X136.398Y-89.04
X138.938Y-84.188
X138.938Y-89.04
X141.478Y-84.188
X141.478Y-89.04
X144.018Y-84.188
X144.018Y-89.04
X146.558Y-84.188
X146.558Y-89.04
X149.098Y-84.188
X149.098Y-89.04
X151.638Y-84.188
X151.638Y-89.04
X154.178Y-84.188
X154.178Y-89.04
X156.718Y-84.188
X156.718Y-89.04
X159.258Y-84.188
X159.258Y-89.04
X161.798Y-84.188
X161.798Y-89.04
X164.338Y-84.188
X164.338Y-89.04
X166.878Y-84.188
X166.878Y-89.04
X169.418Y-84.188
X169.418Y-89.04
X171.958Y-84.188
X171.958Y-89.04
X174.498Y-84.188
X174.498Y-89.04
X177.038Y-84.188
X177.038Y-89.04
X179.578Y-84.188
X179.578Y-89.04
X182.118Y-84.188
X182.118Y-89.04
X184.658Y-84.188
X184.658Y-89.04
X187.198Y-84.188
X187.198Y-89.04
X189.738Y-84.188
X189.738Y-89.04
X192.278Y-84.188
X192.278Y-89.04
X194.818Y-84.188
X194.818Y-89.04
X197.358Y-84.188
X197.358Y-89.04
X199.898Y-84.188
X199.898Y-89.04
X202.438Y-84.188
X202.438Y-89.04
X204.978Y-84.188
X204.978Y-89.04
T0
M30
