%TF.GenerationSoftware,KiCad,Pcbnew,(5.1.6)-1*%
%TF.CreationDate,2022-03-07T17:14:04-05:00*%
%TF.ProjectId,A500-Side-90,41353030-2d53-4696-9465-2d39302e6b69,rev?*%
%TF.SameCoordinates,Original*%
%TF.FileFunction,Copper,L1,Top*%
%TF.FilePolarity,Positive*%
%FSLAX46Y46*%
G04 Gerber Fmt 4.6, Leading zero omitted, Abs format (unit mm)*
G04 Created by KiCad (PCBNEW (5.1.6)-1) date 2022-03-07 17:14:04*
%MOMM*%
%LPD*%
G01*
G04 APERTURE LIST*
%TA.AperFunction,ComponentPad*%
%ADD10C,1.638300*%
%TD*%
%TA.AperFunction,ComponentPad*%
%ADD11R,1.638300X1.638300*%
%TD*%
%TA.AperFunction,SMDPad,CuDef*%
%ADD12R,1.600000X6.500000*%
%TD*%
%TA.AperFunction,Conductor*%
%ADD13C,0.400000*%
%TD*%
G04 APERTURE END LIST*
D10*
%TO.P,BUS1,86*%
%TO.N,/D5*%
X98298000Y-89039700D03*
%TO.P,BUS1,85*%
%TO.N,GND*%
X98298000Y-84188300D03*
%TO.P,BUS1,84*%
%TO.N,/D6*%
X100838000Y-89039700D03*
%TO.P,BUS1,83*%
%TO.N,/D4*%
X100838000Y-84188300D03*
%TO.P,BUS1,82*%
%TO.N,/D7*%
X103378000Y-89039700D03*
%TO.P,BUS1,81*%
%TO.N,/D3*%
X103378000Y-84188300D03*
%TO.P,BUS1,80*%
%TO.N,/D8*%
X105918000Y-89039700D03*
%TO.P,BUS1,79*%
%TO.N,/D2*%
X105918000Y-84188300D03*
%TO.P,BUS1,78*%
%TO.N,/D9*%
X108458000Y-89039700D03*
%TO.P,BUS1,77*%
%TO.N,/D1*%
X108458000Y-84188300D03*
%TO.P,BUS1,76*%
%TO.N,/D10*%
X110998000Y-89039700D03*
%TO.P,BUS1,75*%
%TO.N,/D0*%
X110998000Y-84188300D03*
%TO.P,BUS1,74*%
%TO.N,/AS*%
X113538000Y-89039700D03*
%TO.P,BUS1,73*%
%TO.N,GND*%
X113538000Y-84188300D03*
%TO.P,BUS1,72*%
%TO.N,/UDS*%
X116078000Y-89039700D03*
%TO.P,BUS1,71*%
%TO.N,/D11*%
X116078000Y-84188300D03*
%TO.P,BUS1,70*%
%TO.N,/LDS*%
X118618000Y-89039700D03*
%TO.P,BUS1,69*%
%TO.N,/D12*%
X118618000Y-84188300D03*
%TO.P,BUS1,68*%
%TO.N,/RW*%
X121158000Y-89039700D03*
%TO.P,BUS1,67*%
%TO.N,/D13*%
X121158000Y-84188300D03*
%TO.P,BUS1,66*%
%TO.N,/DTACK*%
X123698000Y-89039700D03*
%TO.P,BUS1,65*%
%TO.N,/D14*%
X123698000Y-84188300D03*
%TO.P,BUS1,64*%
%TO.N,/BG*%
X126238000Y-89039700D03*
%TO.P,BUS1,63*%
%TO.N,/D15*%
X126238000Y-84188300D03*
%TO.P,BUS1,62*%
%TO.N,/BGACK*%
X128778000Y-89039700D03*
%TO.P,BUS1,61*%
%TO.N,GND*%
X128778000Y-84188300D03*
%TO.P,BUS1,60*%
%TO.N,/BR*%
X131318000Y-89039700D03*
%TO.P,BUS1,59*%
%TO.N,/A23*%
X131318000Y-84188300D03*
%TO.P,BUS1,58*%
%TO.N,/A21*%
X133858000Y-89039700D03*
%TO.P,BUS1,57*%
%TO.N,/A22*%
X133858000Y-84188300D03*
%TO.P,BUS1,56*%
%TO.N,/A20*%
X136398000Y-89039700D03*
%TO.P,BUS1,55*%
%TO.N,N/C*%
X136398000Y-84188300D03*
%TO.P,BUS1,54*%
%TO.N,/A19*%
X138938000Y-89039700D03*
%TO.P,BUS1,53*%
%TO.N,/RST*%
X138938000Y-84188300D03*
%TO.P,BUS1,52*%
%TO.N,/A18*%
X141478000Y-89039700D03*
%TO.P,BUS1,51*%
%TO.N,/VMA*%
X141478000Y-84188300D03*
%TO.P,BUS1,50*%
%TO.N,/E*%
X144018000Y-89039700D03*
%TO.P,BUS1,49*%
%TO.N,GND*%
X144018000Y-84188300D03*
%TO.P,BUS1,48*%
%TO.N,/VPA*%
X146558000Y-89039700D03*
%TO.P,BUS1,47*%
%TO.N,/A17*%
X146558000Y-84188300D03*
%TO.P,BUS1,46*%
%TO.N,/BERR*%
X149098000Y-89039700D03*
%TO.P,BUS1,45*%
%TO.N,/A16*%
X149098000Y-84188300D03*
%TO.P,BUS1,44*%
%TO.N,/IPL2*%
X151638000Y-89039700D03*
%TO.P,BUS1,43*%
%TO.N,/A15*%
X151638000Y-84188300D03*
%TO.P,BUS1,42*%
%TO.N,/IPL1*%
X154178000Y-89039700D03*
%TO.P,BUS1,41*%
%TO.N,/A14*%
X154178000Y-84188300D03*
%TO.P,BUS1,40*%
%TO.N,/IPL0*%
X156718000Y-89039700D03*
%TO.P,BUS1,39*%
%TO.N,/A13*%
X156718000Y-84188300D03*
%TO.P,BUS1,38*%
%TO.N,/A12*%
X159258000Y-89039700D03*
%TO.P,BUS1,37*%
%TO.N,GND*%
X159258000Y-84188300D03*
%TO.P,BUS1,36*%
%TO.N,/A11*%
X161798000Y-89039700D03*
%TO.P,BUS1,35*%
%TO.N,/FC2*%
X161798000Y-84188300D03*
%TO.P,BUS1,34*%
%TO.N,/A10*%
X164338000Y-89039700D03*
%TO.P,BUS1,33*%
%TO.N,/FC1*%
X164338000Y-84188300D03*
%TO.P,BUS1,32*%
%TO.N,/A9*%
X166878000Y-89039700D03*
%TO.P,BUS1,31*%
%TO.N,/FC0*%
X166878000Y-84188300D03*
%TO.P,BUS1,30*%
%TO.N,/A8*%
X169418000Y-89039700D03*
%TO.P,BUS1,29*%
%TO.N,/A1*%
X169418000Y-84188300D03*
%TO.P,BUS1,28*%
%TO.N,/A7*%
X171958000Y-89039700D03*
%TO.P,BUS1,27*%
%TO.N,/A2*%
X171958000Y-84188300D03*
%TO.P,BUS1,26*%
%TO.N,/A3*%
X174498000Y-89039700D03*
%TO.P,BUS1,25*%
%TO.N,GND*%
X174498000Y-84188300D03*
%TO.P,BUS1,24*%
%TO.N,/A4*%
X177038000Y-89039700D03*
%TO.P,BUS1,23*%
%TO.N,/A6*%
X177038000Y-84188300D03*
%TO.P,BUS1,22*%
%TO.N,/INT6*%
X179578000Y-89039700D03*
%TO.P,BUS1,21*%
%TO.N,/A5*%
X179578000Y-84188300D03*
%TO.P,BUS1,20*%
%TO.N,Net-(BUS1-Pad20)*%
X182118000Y-89039700D03*
%TO.P,BUS1,19*%
%TO.N,/INT2*%
X182118000Y-84188300D03*
%TO.P,BUS1,18*%
%TO.N,/XRDY*%
X184658000Y-89039700D03*
%TO.P,BUS1,17*%
%TO.N,/HLT*%
X184658000Y-84188300D03*
%TO.P,BUS1,16*%
%TO.N,/CCK*%
X187198000Y-89039700D03*
%TO.P,BUS1,15*%
%TO.N,/CDAC*%
X187198000Y-84188300D03*
%TO.P,BUS1,14*%
%TO.N,/CCKQ*%
X189738000Y-89039700D03*
%TO.P,BUS1,13*%
%TO.N,GND*%
X189738000Y-84188300D03*
%TO.P,BUS1,12*%
%TO.N,/CFG*%
X192278000Y-89039700D03*
%TO.P,BUS1,11*%
%TO.N,Net-(BUS1-Pad11)*%
X192278000Y-84188300D03*
%TO.P,BUS1,10*%
%TO.N,+12V*%
X194818000Y-89039700D03*
%TO.P,BUS1,9*%
%TO.N,Net-(BUS1-Pad9)*%
X194818000Y-84188300D03*
%TO.P,BUS1,8*%
%TO.N,-12V*%
X197358000Y-89039700D03*
%TO.P,BUS1,7*%
%TO.N,/7MHZ*%
X197358000Y-84188300D03*
%TO.P,BUS1,6*%
%TO.N,+5V*%
X199898000Y-89039700D03*
%TO.P,BUS1,5*%
X199898000Y-84188300D03*
%TO.P,BUS1,4*%
%TO.N,GND*%
X202438000Y-89039700D03*
%TO.P,BUS1,3*%
X202438000Y-84188300D03*
%TO.P,BUS1,2*%
X204978000Y-89039700D03*
D11*
%TO.P,BUS1,1*%
X204978000Y-84188300D03*
%TD*%
D12*
%TO.P,BUS2,85*%
%TO.N,GND*%
X98298000Y-75184000D03*
%TO.P,BUS2,83*%
%TO.N,/D4*%
X100838000Y-75184000D03*
%TO.P,BUS2,81*%
%TO.N,/D3*%
X103378000Y-75184000D03*
%TO.P,BUS2,79*%
%TO.N,/D2*%
X105918000Y-75184000D03*
%TO.P,BUS2,77*%
%TO.N,/D1*%
X108458000Y-75184000D03*
%TO.P,BUS2,75*%
%TO.N,/D0*%
X110998000Y-75184000D03*
%TO.P,BUS2,73*%
%TO.N,GND*%
X113538000Y-75184000D03*
%TO.P,BUS2,71*%
%TO.N,/D11*%
X116078000Y-75184000D03*
%TO.P,BUS2,69*%
%TO.N,/D12*%
X118618000Y-75184000D03*
%TO.P,BUS2,67*%
%TO.N,/D13*%
X121158000Y-75184000D03*
%TO.P,BUS2,65*%
%TO.N,/D14*%
X123698000Y-75184000D03*
%TO.P,BUS2,63*%
%TO.N,/D15*%
X126238000Y-75184000D03*
%TO.P,BUS2,61*%
%TO.N,GND*%
X128778000Y-75184000D03*
%TO.P,BUS2,59*%
%TO.N,/A23*%
X131318000Y-75184000D03*
%TO.P,BUS2,57*%
%TO.N,/A22*%
X133858000Y-75184000D03*
%TO.P,BUS2,55*%
%TO.N,N/C*%
X136398000Y-75184000D03*
%TO.P,BUS2,53*%
%TO.N,/RST*%
X138938000Y-75184000D03*
%TO.P,BUS2,51*%
%TO.N,/VMA*%
X141478000Y-75184000D03*
%TO.P,BUS2,49*%
%TO.N,GND*%
X144018000Y-75184000D03*
%TO.P,BUS2,47*%
%TO.N,/A17*%
X146558000Y-75184000D03*
%TO.P,BUS2,45*%
%TO.N,/A16*%
X149098000Y-75184000D03*
%TO.P,BUS2,43*%
%TO.N,/A15*%
X151638000Y-75184000D03*
%TO.P,BUS2,41*%
%TO.N,/A14*%
X154178000Y-75184000D03*
%TO.P,BUS2,39*%
%TO.N,/A13*%
X156718000Y-75184000D03*
%TO.P,BUS2,37*%
%TO.N,GND*%
X159258000Y-75184000D03*
%TO.P,BUS2,35*%
%TO.N,/FC2*%
X161798000Y-75184000D03*
%TO.P,BUS2,33*%
%TO.N,/FC1*%
X164338000Y-75184000D03*
%TO.P,BUS2,31*%
%TO.N,/FC0*%
X166878000Y-75184000D03*
%TO.P,BUS2,29*%
%TO.N,/A1*%
X169418000Y-75184000D03*
%TO.P,BUS2,27*%
%TO.N,/A2*%
X171958000Y-75184000D03*
%TO.P,BUS2,25*%
%TO.N,GND*%
X174498000Y-75184000D03*
%TO.P,BUS2,23*%
%TO.N,/A6*%
X177038000Y-75184000D03*
%TO.P,BUS2,21*%
%TO.N,/A5*%
X179578000Y-75184000D03*
%TO.P,BUS2,19*%
%TO.N,/INT2*%
X182118000Y-75184000D03*
%TO.P,BUS2,17*%
%TO.N,/HLT*%
X184658000Y-75184000D03*
%TO.P,BUS2,15*%
%TO.N,/CDAC*%
X187198000Y-75184000D03*
%TO.P,BUS2,13*%
%TO.N,GND*%
X189738000Y-75184000D03*
%TO.P,BUS2,11*%
%TO.N,Net-(BUS2-Pad11)*%
X192278000Y-75184000D03*
%TO.P,BUS2,9*%
%TO.N,Net-(BUS2-Pad9)*%
X194818000Y-75184000D03*
%TO.P,BUS2,7*%
%TO.N,/7MHZ*%
X197358000Y-75184000D03*
%TO.P,BUS2,5*%
%TO.N,+5V*%
X199898000Y-75184000D03*
%TO.P,BUS2,3*%
%TO.N,GND*%
X202438000Y-75184000D03*
%TO.P,BUS2,1*%
X204978000Y-75184000D03*
%TD*%
D13*
%TO.N,*%
X136398000Y-84188300D02*
X136398000Y-75184000D01*
%TO.N,GND*%
X189738000Y-84188300D02*
X189738000Y-75184000D01*
X202438000Y-84188300D02*
X202438000Y-75184000D01*
X204978000Y-84188300D02*
X204978000Y-75184000D01*
X174498000Y-84188300D02*
X174498000Y-75184000D01*
X159258000Y-84188300D02*
X159258000Y-75184000D01*
X144018000Y-84188300D02*
X144018000Y-75184000D01*
X128778000Y-84188300D02*
X128778000Y-75184000D01*
X98298000Y-84188300D02*
X98298000Y-75184000D01*
X113538000Y-84188300D02*
X113538000Y-75184000D01*
%TO.N,/D4*%
X100838000Y-84188300D02*
X100838000Y-75184000D01*
%TO.N,/D3*%
X103378000Y-84188300D02*
X103378000Y-75184000D01*
%TO.N,/D2*%
X105918000Y-84188300D02*
X105918000Y-75184000D01*
%TO.N,/D1*%
X108458000Y-84188300D02*
X108458000Y-75184000D01*
%TO.N,/D0*%
X110998000Y-84188300D02*
X110998000Y-75184000D01*
%TO.N,/D11*%
X116078000Y-84188300D02*
X116078000Y-75184000D01*
%TO.N,/D12*%
X118618000Y-84188300D02*
X118618000Y-75184000D01*
%TO.N,/D13*%
X121158000Y-84188300D02*
X121158000Y-75184000D01*
%TO.N,/D14*%
X123698000Y-84188300D02*
X123698000Y-75184000D01*
%TO.N,/D15*%
X126238000Y-84188300D02*
X126238000Y-75184000D01*
%TO.N,/A23*%
X131318000Y-84188300D02*
X131318000Y-75184000D01*
%TO.N,/A22*%
X133858000Y-84188300D02*
X133858000Y-75184000D01*
%TO.N,/RST*%
X138938000Y-84188300D02*
X138938000Y-75184000D01*
%TO.N,/VMA*%
X141478000Y-84188300D02*
X141478000Y-75184000D01*
%TO.N,/A17*%
X146558000Y-84188300D02*
X146558000Y-75184000D01*
%TO.N,/A16*%
X149098000Y-84188300D02*
X149098000Y-75184000D01*
%TO.N,/A15*%
X151638000Y-84188300D02*
X151638000Y-75184000D01*
%TO.N,/A14*%
X154178000Y-84188300D02*
X154178000Y-75184000D01*
%TO.N,/A13*%
X156718000Y-84188300D02*
X156718000Y-75184000D01*
%TO.N,/FC2*%
X161798000Y-84188300D02*
X161798000Y-75184000D01*
%TO.N,/FC1*%
X164338000Y-84188300D02*
X164338000Y-75184000D01*
%TO.N,/FC0*%
X166878000Y-84188300D02*
X166878000Y-75184000D01*
%TO.N,/A1*%
X169418000Y-84188300D02*
X169418000Y-75184000D01*
%TO.N,/A2*%
X171958000Y-84188300D02*
X171958000Y-75184000D01*
%TO.N,/A6*%
X177038000Y-84188300D02*
X177038000Y-75184000D01*
%TO.N,/A5*%
X179578000Y-84188300D02*
X179578000Y-75184000D01*
%TO.N,/INT2*%
X182118000Y-84188300D02*
X182118000Y-75184000D01*
%TO.N,/HLT*%
X184658000Y-84188300D02*
X184658000Y-75184000D01*
%TO.N,/CDAC*%
X187198000Y-84188300D02*
X187198000Y-75184000D01*
%TO.N,/7MHZ*%
X197358000Y-84188300D02*
X197358000Y-75184000D01*
%TO.N,+5V*%
X199898000Y-84188300D02*
X199898000Y-75184000D01*
%TD*%
M02*
