%TF.GenerationSoftware,KiCad,Pcbnew,(5.1.6)-1*%
%TF.CreationDate,2022-03-07T17:14:04-05:00*%
%TF.ProjectId,A500-Side-90,41353030-2d53-4696-9465-2d39302e6b69,rev?*%
%TF.SameCoordinates,Original*%
%TF.FileFunction,Legend,Top*%
%TF.FilePolarity,Positive*%
%FSLAX46Y46*%
G04 Gerber Fmt 4.6, Leading zero omitted, Abs format (unit mm)*
G04 Created by KiCad (PCBNEW (5.1.6)-1) date 2022-03-07 17:14:04*
%MOMM*%
%LPD*%
G01*
G04 APERTURE LIST*
%ADD10C,0.150000*%
%ADD11C,0.200000*%
%ADD12C,0.127000*%
G04 APERTURE END LIST*
D10*
X131685619Y-80430666D02*
X132161809Y-80430666D01*
X131590380Y-80716380D02*
X131923714Y-79716380D01*
X132257047Y-80716380D01*
X132590380Y-80716380D02*
X132590380Y-80049714D01*
X132590380Y-80144952D02*
X132638000Y-80097333D01*
X132733238Y-80049714D01*
X132876095Y-80049714D01*
X132971333Y-80097333D01*
X133018952Y-80192571D01*
X133018952Y-80716380D01*
X133018952Y-80192571D02*
X133066571Y-80097333D01*
X133161809Y-80049714D01*
X133304666Y-80049714D01*
X133399904Y-80097333D01*
X133447523Y-80192571D01*
X133447523Y-80716380D01*
X133923714Y-80716380D02*
X133923714Y-80049714D01*
X133923714Y-79716380D02*
X133876095Y-79764000D01*
X133923714Y-79811619D01*
X133971333Y-79764000D01*
X133923714Y-79716380D01*
X133923714Y-79811619D01*
X134828476Y-80049714D02*
X134828476Y-80859238D01*
X134780857Y-80954476D01*
X134733238Y-81002095D01*
X134638000Y-81049714D01*
X134495142Y-81049714D01*
X134399904Y-81002095D01*
X134828476Y-80668761D02*
X134733238Y-80716380D01*
X134542761Y-80716380D01*
X134447523Y-80668761D01*
X134399904Y-80621142D01*
X134352285Y-80525904D01*
X134352285Y-80240190D01*
X134399904Y-80144952D01*
X134447523Y-80097333D01*
X134542761Y-80049714D01*
X134733238Y-80049714D01*
X134828476Y-80097333D01*
X135733238Y-80716380D02*
X135733238Y-80192571D01*
X135685619Y-80097333D01*
X135590380Y-80049714D01*
X135399904Y-80049714D01*
X135304666Y-80097333D01*
X135733238Y-80668761D02*
X135638000Y-80716380D01*
X135399904Y-80716380D01*
X135304666Y-80668761D01*
X135257047Y-80573523D01*
X135257047Y-80478285D01*
X135304666Y-80383047D01*
X135399904Y-80335428D01*
X135638000Y-80335428D01*
X135733238Y-80287809D01*
X137447523Y-79716380D02*
X136971333Y-79716380D01*
X136923714Y-80192571D01*
X136971333Y-80144952D01*
X137066571Y-80097333D01*
X137304666Y-80097333D01*
X137399904Y-80144952D01*
X137447523Y-80192571D01*
X137495142Y-80287809D01*
X137495142Y-80525904D01*
X137447523Y-80621142D01*
X137399904Y-80668761D01*
X137304666Y-80716380D01*
X137066571Y-80716380D01*
X136971333Y-80668761D01*
X136923714Y-80621142D01*
X138114190Y-79716380D02*
X138209428Y-79716380D01*
X138304666Y-79764000D01*
X138352285Y-79811619D01*
X138399904Y-79906857D01*
X138447523Y-80097333D01*
X138447523Y-80335428D01*
X138399904Y-80525904D01*
X138352285Y-80621142D01*
X138304666Y-80668761D01*
X138209428Y-80716380D01*
X138114190Y-80716380D01*
X138018952Y-80668761D01*
X137971333Y-80621142D01*
X137923714Y-80525904D01*
X137876095Y-80335428D01*
X137876095Y-80097333D01*
X137923714Y-79906857D01*
X137971333Y-79811619D01*
X138018952Y-79764000D01*
X138114190Y-79716380D01*
X139066571Y-79716380D02*
X139161809Y-79716380D01*
X139257047Y-79764000D01*
X139304666Y-79811619D01*
X139352285Y-79906857D01*
X139399904Y-80097333D01*
X139399904Y-80335428D01*
X139352285Y-80525904D01*
X139304666Y-80621142D01*
X139257047Y-80668761D01*
X139161809Y-80716380D01*
X139066571Y-80716380D01*
X138971333Y-80668761D01*
X138923714Y-80621142D01*
X138876095Y-80525904D01*
X138828476Y-80335428D01*
X138828476Y-80097333D01*
X138876095Y-79906857D01*
X138923714Y-79811619D01*
X138971333Y-79764000D01*
X139066571Y-79716380D01*
X140542761Y-79668761D02*
X139685619Y-80954476D01*
X141352285Y-79716380D02*
X140876095Y-79716380D01*
X140828476Y-80192571D01*
X140876095Y-80144952D01*
X140971333Y-80097333D01*
X141209428Y-80097333D01*
X141304666Y-80144952D01*
X141352285Y-80192571D01*
X141399904Y-80287809D01*
X141399904Y-80525904D01*
X141352285Y-80621142D01*
X141304666Y-80668761D01*
X141209428Y-80716380D01*
X140971333Y-80716380D01*
X140876095Y-80668761D01*
X140828476Y-80621142D01*
X142018952Y-79716380D02*
X142114190Y-79716380D01*
X142209428Y-79764000D01*
X142257047Y-79811619D01*
X142304666Y-79906857D01*
X142352285Y-80097333D01*
X142352285Y-80335428D01*
X142304666Y-80525904D01*
X142257047Y-80621142D01*
X142209428Y-80668761D01*
X142114190Y-80716380D01*
X142018952Y-80716380D01*
X141923714Y-80668761D01*
X141876095Y-80621142D01*
X141828476Y-80525904D01*
X141780857Y-80335428D01*
X141780857Y-80097333D01*
X141828476Y-79906857D01*
X141876095Y-79811619D01*
X141923714Y-79764000D01*
X142018952Y-79716380D01*
X142971333Y-79716380D02*
X143066571Y-79716380D01*
X143161809Y-79764000D01*
X143209428Y-79811619D01*
X143257047Y-79906857D01*
X143304666Y-80097333D01*
X143304666Y-80335428D01*
X143257047Y-80525904D01*
X143209428Y-80621142D01*
X143161809Y-80668761D01*
X143066571Y-80716380D01*
X142971333Y-80716380D01*
X142876095Y-80668761D01*
X142828476Y-80621142D01*
X142780857Y-80525904D01*
X142733238Y-80335428D01*
X142733238Y-80097333D01*
X142780857Y-79906857D01*
X142828476Y-79811619D01*
X142876095Y-79764000D01*
X142971333Y-79716380D01*
X143733238Y-80335428D02*
X144495142Y-80335428D01*
X144114190Y-80716380D02*
X144114190Y-79954476D01*
X145733238Y-80192571D02*
X146066571Y-80192571D01*
X146209428Y-80716380D02*
X145733238Y-80716380D01*
X145733238Y-79716380D01*
X146209428Y-79716380D01*
X146542761Y-80716380D02*
X147066571Y-80049714D01*
X146542761Y-80049714D02*
X147066571Y-80716380D01*
X147447523Y-80049714D02*
X147447523Y-81049714D01*
X147447523Y-80097333D02*
X147542761Y-80049714D01*
X147733238Y-80049714D01*
X147828476Y-80097333D01*
X147876095Y-80144952D01*
X147923714Y-80240190D01*
X147923714Y-80525904D01*
X147876095Y-80621142D01*
X147828476Y-80668761D01*
X147733238Y-80716380D01*
X147542761Y-80716380D01*
X147447523Y-80668761D01*
X148780857Y-80716380D02*
X148780857Y-80192571D01*
X148733238Y-80097333D01*
X148638000Y-80049714D01*
X148447523Y-80049714D01*
X148352285Y-80097333D01*
X148780857Y-80668761D02*
X148685619Y-80716380D01*
X148447523Y-80716380D01*
X148352285Y-80668761D01*
X148304666Y-80573523D01*
X148304666Y-80478285D01*
X148352285Y-80383047D01*
X148447523Y-80335428D01*
X148685619Y-80335428D01*
X148780857Y-80287809D01*
X149257047Y-80049714D02*
X149257047Y-80716380D01*
X149257047Y-80144952D02*
X149304666Y-80097333D01*
X149399904Y-80049714D01*
X149542761Y-80049714D01*
X149638000Y-80097333D01*
X149685619Y-80192571D01*
X149685619Y-80716380D01*
X150114190Y-80668761D02*
X150209428Y-80716380D01*
X150399904Y-80716380D01*
X150495142Y-80668761D01*
X150542761Y-80573523D01*
X150542761Y-80525904D01*
X150495142Y-80430666D01*
X150399904Y-80383047D01*
X150257047Y-80383047D01*
X150161809Y-80335428D01*
X150114190Y-80240190D01*
X150114190Y-80192571D01*
X150161809Y-80097333D01*
X150257047Y-80049714D01*
X150399904Y-80049714D01*
X150495142Y-80097333D01*
X150971333Y-80716380D02*
X150971333Y-80049714D01*
X150971333Y-79716380D02*
X150923714Y-79764000D01*
X150971333Y-79811619D01*
X151018952Y-79764000D01*
X150971333Y-79716380D01*
X150971333Y-79811619D01*
X151590380Y-80716380D02*
X151495142Y-80668761D01*
X151447523Y-80621142D01*
X151399904Y-80525904D01*
X151399904Y-80240190D01*
X151447523Y-80144952D01*
X151495142Y-80097333D01*
X151590380Y-80049714D01*
X151733238Y-80049714D01*
X151828476Y-80097333D01*
X151876095Y-80144952D01*
X151923714Y-80240190D01*
X151923714Y-80525904D01*
X151876095Y-80621142D01*
X151828476Y-80668761D01*
X151733238Y-80716380D01*
X151590380Y-80716380D01*
X152352285Y-80049714D02*
X152352285Y-80716380D01*
X152352285Y-80144952D02*
X152399904Y-80097333D01*
X152495142Y-80049714D01*
X152638000Y-80049714D01*
X152733238Y-80097333D01*
X152780857Y-80192571D01*
X152780857Y-80716380D01*
X154352285Y-80192571D02*
X154495142Y-80240190D01*
X154542761Y-80287809D01*
X154590380Y-80383047D01*
X154590380Y-80525904D01*
X154542761Y-80621142D01*
X154495142Y-80668761D01*
X154399904Y-80716380D01*
X154018952Y-80716380D01*
X154018952Y-79716380D01*
X154352285Y-79716380D01*
X154447523Y-79764000D01*
X154495142Y-79811619D01*
X154542761Y-79906857D01*
X154542761Y-80002095D01*
X154495142Y-80097333D01*
X154447523Y-80144952D01*
X154352285Y-80192571D01*
X154018952Y-80192571D01*
X155447523Y-80049714D02*
X155447523Y-80716380D01*
X155018952Y-80049714D02*
X155018952Y-80573523D01*
X155066571Y-80668761D01*
X155161809Y-80716380D01*
X155304666Y-80716380D01*
X155399904Y-80668761D01*
X155447523Y-80621142D01*
X155876095Y-80668761D02*
X155971333Y-80716380D01*
X156161809Y-80716380D01*
X156257047Y-80668761D01*
X156304666Y-80573523D01*
X156304666Y-80525904D01*
X156257047Y-80430666D01*
X156161809Y-80383047D01*
X156018952Y-80383047D01*
X155923714Y-80335428D01*
X155876095Y-80240190D01*
X155876095Y-80192571D01*
X155923714Y-80097333D01*
X156018952Y-80049714D01*
X156161809Y-80049714D01*
X156257047Y-80097333D01*
X157542761Y-80716380D02*
X157733238Y-80716380D01*
X157828476Y-80668761D01*
X157876095Y-80621142D01*
X157971333Y-80478285D01*
X158018952Y-80287809D01*
X158018952Y-79906857D01*
X157971333Y-79811619D01*
X157923714Y-79764000D01*
X157828476Y-79716380D01*
X157638000Y-79716380D01*
X157542761Y-79764000D01*
X157495142Y-79811619D01*
X157447523Y-79906857D01*
X157447523Y-80144952D01*
X157495142Y-80240190D01*
X157542761Y-80287809D01*
X157638000Y-80335428D01*
X157828476Y-80335428D01*
X157923714Y-80287809D01*
X157971333Y-80240190D01*
X158018952Y-80144952D01*
X158638000Y-79716380D02*
X158733238Y-79716380D01*
X158828476Y-79764000D01*
X158876095Y-79811619D01*
X158923714Y-79906857D01*
X158971333Y-80097333D01*
X158971333Y-80335428D01*
X158923714Y-80525904D01*
X158876095Y-80621142D01*
X158828476Y-80668761D01*
X158733238Y-80716380D01*
X158638000Y-80716380D01*
X158542761Y-80668761D01*
X158495142Y-80621142D01*
X158447523Y-80525904D01*
X158399904Y-80335428D01*
X158399904Y-80097333D01*
X158447523Y-79906857D01*
X158495142Y-79811619D01*
X158542761Y-79764000D01*
X158638000Y-79716380D01*
X159399904Y-80335428D02*
X160161809Y-80335428D01*
X161066571Y-80716380D02*
X161066571Y-79716380D01*
X161066571Y-80668761D02*
X160971333Y-80716380D01*
X160780857Y-80716380D01*
X160685619Y-80668761D01*
X160638000Y-80621142D01*
X160590380Y-80525904D01*
X160590380Y-80240190D01*
X160638000Y-80144952D01*
X160685619Y-80097333D01*
X160780857Y-80049714D01*
X160971333Y-80049714D01*
X161066571Y-80097333D01*
X161923714Y-80668761D02*
X161828476Y-80716380D01*
X161638000Y-80716380D01*
X161542761Y-80668761D01*
X161495142Y-80573523D01*
X161495142Y-80192571D01*
X161542761Y-80097333D01*
X161638000Y-80049714D01*
X161828476Y-80049714D01*
X161923714Y-80097333D01*
X161971333Y-80192571D01*
X161971333Y-80287809D01*
X161495142Y-80383047D01*
X162828476Y-80049714D02*
X162828476Y-80859238D01*
X162780857Y-80954476D01*
X162733238Y-81002095D01*
X162638000Y-81049714D01*
X162495142Y-81049714D01*
X162399904Y-81002095D01*
X162828476Y-80668761D02*
X162733238Y-80716380D01*
X162542761Y-80716380D01*
X162447523Y-80668761D01*
X162399904Y-80621142D01*
X162352285Y-80525904D01*
X162352285Y-80240190D01*
X162399904Y-80144952D01*
X162447523Y-80097333D01*
X162542761Y-80049714D01*
X162733238Y-80049714D01*
X162828476Y-80097333D01*
X163304666Y-80716380D02*
X163304666Y-80049714D01*
X163304666Y-80240190D02*
X163352285Y-80144952D01*
X163399904Y-80097333D01*
X163495142Y-80049714D01*
X163590380Y-80049714D01*
X164304666Y-80668761D02*
X164209428Y-80716380D01*
X164018952Y-80716380D01*
X163923714Y-80668761D01*
X163876095Y-80573523D01*
X163876095Y-80192571D01*
X163923714Y-80097333D01*
X164018952Y-80049714D01*
X164209428Y-80049714D01*
X164304666Y-80097333D01*
X164352285Y-80192571D01*
X164352285Y-80287809D01*
X163876095Y-80383047D01*
X165161809Y-80668761D02*
X165066571Y-80716380D01*
X164876095Y-80716380D01*
X164780857Y-80668761D01*
X164733238Y-80573523D01*
X164733238Y-80192571D01*
X164780857Y-80097333D01*
X164876095Y-80049714D01*
X165066571Y-80049714D01*
X165161809Y-80097333D01*
X165209428Y-80192571D01*
X165209428Y-80287809D01*
X164733238Y-80383047D01*
X166352285Y-80430666D02*
X166828476Y-80430666D01*
X166257047Y-80716380D02*
X166590380Y-79716380D01*
X166923714Y-80716380D01*
X167685619Y-80716380D02*
X167685619Y-79716380D01*
X167685619Y-80668761D02*
X167590380Y-80716380D01*
X167399904Y-80716380D01*
X167304666Y-80668761D01*
X167257047Y-80621142D01*
X167209428Y-80525904D01*
X167209428Y-80240190D01*
X167257047Y-80144952D01*
X167304666Y-80097333D01*
X167399904Y-80049714D01*
X167590380Y-80049714D01*
X167685619Y-80097333D01*
X168590380Y-80716380D02*
X168590380Y-80192571D01*
X168542761Y-80097333D01*
X168447523Y-80049714D01*
X168257047Y-80049714D01*
X168161809Y-80097333D01*
X168590380Y-80668761D02*
X168495142Y-80716380D01*
X168257047Y-80716380D01*
X168161809Y-80668761D01*
X168114190Y-80573523D01*
X168114190Y-80478285D01*
X168161809Y-80383047D01*
X168257047Y-80335428D01*
X168495142Y-80335428D01*
X168590380Y-80287809D01*
X169066571Y-80049714D02*
X169066571Y-81049714D01*
X169066571Y-80097333D02*
X169161809Y-80049714D01*
X169352285Y-80049714D01*
X169447523Y-80097333D01*
X169495142Y-80144952D01*
X169542761Y-80240190D01*
X169542761Y-80525904D01*
X169495142Y-80621142D01*
X169447523Y-80668761D01*
X169352285Y-80716380D01*
X169161809Y-80716380D01*
X169066571Y-80668761D01*
X169828476Y-80049714D02*
X170209428Y-80049714D01*
X169971333Y-79716380D02*
X169971333Y-80573523D01*
X170018952Y-80668761D01*
X170114190Y-80716380D01*
X170209428Y-80716380D01*
X170923714Y-80668761D02*
X170828476Y-80716380D01*
X170638000Y-80716380D01*
X170542761Y-80668761D01*
X170495142Y-80573523D01*
X170495142Y-80192571D01*
X170542761Y-80097333D01*
X170638000Y-80049714D01*
X170828476Y-80049714D01*
X170923714Y-80097333D01*
X170971333Y-80192571D01*
X170971333Y-80287809D01*
X170495142Y-80383047D01*
X171399904Y-80716380D02*
X171399904Y-80049714D01*
X171399904Y-80240190D02*
X171447523Y-80144952D01*
X171495142Y-80097333D01*
X171590380Y-80049714D01*
X171685619Y-80049714D01*
X147018952Y-86066380D02*
X147018952Y-86780666D01*
X146971333Y-86923523D01*
X146876095Y-87018761D01*
X146733238Y-87066380D01*
X146638000Y-87066380D01*
X147971333Y-87066380D02*
X147495142Y-87066380D01*
X147495142Y-86066380D01*
X148876095Y-86971142D02*
X148828476Y-87018761D01*
X148685619Y-87066380D01*
X148590380Y-87066380D01*
X148447523Y-87018761D01*
X148352285Y-86923523D01*
X148304666Y-86828285D01*
X148257047Y-86637809D01*
X148257047Y-86494952D01*
X148304666Y-86304476D01*
X148352285Y-86209238D01*
X148447523Y-86114000D01*
X148590380Y-86066380D01*
X148685619Y-86066380D01*
X148828476Y-86114000D01*
X148876095Y-86161619D01*
X149590380Y-86066380D02*
X149590380Y-86780666D01*
X149542761Y-86923523D01*
X149447523Y-87018761D01*
X149304666Y-87066380D01*
X149209428Y-87066380D01*
X150542761Y-87066380D02*
X150066571Y-87066380D01*
X150066571Y-86066380D01*
X151447523Y-86971142D02*
X151399904Y-87018761D01*
X151257047Y-87066380D01*
X151161809Y-87066380D01*
X151018952Y-87018761D01*
X150923714Y-86923523D01*
X150876095Y-86828285D01*
X150828476Y-86637809D01*
X150828476Y-86494952D01*
X150876095Y-86304476D01*
X150923714Y-86209238D01*
X151018952Y-86114000D01*
X151161809Y-86066380D01*
X151257047Y-86066380D01*
X151399904Y-86114000D01*
X151447523Y-86161619D01*
X152161809Y-86066380D02*
X152161809Y-86780666D01*
X152114190Y-86923523D01*
X152018952Y-87018761D01*
X151876095Y-87066380D01*
X151780857Y-87066380D01*
X153114190Y-87066380D02*
X152638000Y-87066380D01*
X152638000Y-86066380D01*
X154018952Y-86971142D02*
X153971333Y-87018761D01*
X153828476Y-87066380D01*
X153733238Y-87066380D01*
X153590380Y-87018761D01*
X153495142Y-86923523D01*
X153447523Y-86828285D01*
X153399904Y-86637809D01*
X153399904Y-86494952D01*
X153447523Y-86304476D01*
X153495142Y-86209238D01*
X153590380Y-86114000D01*
X153733238Y-86066380D01*
X153828476Y-86066380D01*
X153971333Y-86114000D01*
X154018952Y-86161619D01*
X154733238Y-86066380D02*
X154733238Y-86780666D01*
X154685619Y-86923523D01*
X154590380Y-87018761D01*
X154447523Y-87066380D01*
X154352285Y-87066380D01*
X155685619Y-87066380D02*
X155209428Y-87066380D01*
X155209428Y-86066380D01*
X156590380Y-86971142D02*
X156542761Y-87018761D01*
X156399904Y-87066380D01*
X156304666Y-87066380D01*
X156161809Y-87018761D01*
X156066571Y-86923523D01*
X156018952Y-86828285D01*
X155971333Y-86637809D01*
X155971333Y-86494952D01*
X156018952Y-86304476D01*
X156066571Y-86209238D01*
X156161809Y-86114000D01*
X156304666Y-86066380D01*
X156399904Y-86066380D01*
X156542761Y-86114000D01*
X156590380Y-86161619D01*
D11*
%TO.C,BUS1*%
X205078000Y-81280000D02*
G75*
G03*
X205078000Y-81280000I-100000J0D01*
G01*
D12*
X209550000Y-81940400D02*
X93726000Y-81940400D01*
X93726000Y-91287600D02*
X209550000Y-91287600D01*
X93726000Y-81940400D02*
X93726000Y-91287600D01*
X209550000Y-91287600D02*
X209550000Y-81940400D01*
D10*
X204885238Y-92333771D02*
X205028095Y-92381390D01*
X205075714Y-92429009D01*
X205123333Y-92524247D01*
X205123333Y-92667104D01*
X205075714Y-92762342D01*
X205028095Y-92809961D01*
X204932857Y-92857580D01*
X204551904Y-92857580D01*
X204551904Y-91857580D01*
X204885238Y-91857580D01*
X204980476Y-91905200D01*
X205028095Y-91952819D01*
X205075714Y-92048057D01*
X205075714Y-92143295D01*
X205028095Y-92238533D01*
X204980476Y-92286152D01*
X204885238Y-92333771D01*
X204551904Y-92333771D01*
X205551904Y-91857580D02*
X205551904Y-92667104D01*
X205599523Y-92762342D01*
X205647142Y-92809961D01*
X205742380Y-92857580D01*
X205932857Y-92857580D01*
X206028095Y-92809961D01*
X206075714Y-92762342D01*
X206123333Y-92667104D01*
X206123333Y-91857580D01*
X206551904Y-92809961D02*
X206694761Y-92857580D01*
X206932857Y-92857580D01*
X207028095Y-92809961D01*
X207075714Y-92762342D01*
X207123333Y-92667104D01*
X207123333Y-92571866D01*
X207075714Y-92476628D01*
X207028095Y-92429009D01*
X206932857Y-92381390D01*
X206742380Y-92333771D01*
X206647142Y-92286152D01*
X206599523Y-92238533D01*
X206551904Y-92143295D01*
X206551904Y-92048057D01*
X206599523Y-91952819D01*
X206647142Y-91905200D01*
X206742380Y-91857580D01*
X206980476Y-91857580D01*
X207123333Y-91905200D01*
X208075714Y-92857580D02*
X207504285Y-92857580D01*
X207790000Y-92857580D02*
X207790000Y-91857580D01*
X207694761Y-92000438D01*
X207599523Y-92095676D01*
X207504285Y-92143295D01*
%TO.C,BUS2*%
X97726571Y-79636952D02*
X97631333Y-79589333D01*
X97583714Y-79541714D01*
X97536095Y-79446476D01*
X97536095Y-79398857D01*
X97583714Y-79303619D01*
X97631333Y-79256000D01*
X97726571Y-79208380D01*
X97917047Y-79208380D01*
X98012285Y-79256000D01*
X98059904Y-79303619D01*
X98107523Y-79398857D01*
X98107523Y-79446476D01*
X98059904Y-79541714D01*
X98012285Y-79589333D01*
X97917047Y-79636952D01*
X97726571Y-79636952D01*
X97631333Y-79684571D01*
X97583714Y-79732190D01*
X97536095Y-79827428D01*
X97536095Y-80017904D01*
X97583714Y-80113142D01*
X97631333Y-80160761D01*
X97726571Y-80208380D01*
X97917047Y-80208380D01*
X98012285Y-80160761D01*
X98059904Y-80113142D01*
X98107523Y-80017904D01*
X98107523Y-79827428D01*
X98059904Y-79732190D01*
X98012285Y-79684571D01*
X97917047Y-79636952D01*
X99012285Y-79208380D02*
X98536095Y-79208380D01*
X98488476Y-79684571D01*
X98536095Y-79636952D01*
X98631333Y-79589333D01*
X98869428Y-79589333D01*
X98964666Y-79636952D01*
X99012285Y-79684571D01*
X99059904Y-79779809D01*
X99059904Y-80017904D01*
X99012285Y-80113142D01*
X98964666Y-80160761D01*
X98869428Y-80208380D01*
X98631333Y-80208380D01*
X98536095Y-80160761D01*
X98488476Y-80113142D01*
X205263714Y-80208380D02*
X204692285Y-80208380D01*
X204978000Y-80208380D02*
X204978000Y-79208380D01*
X204882761Y-79351238D01*
X204787523Y-79446476D01*
X204692285Y-79494095D01*
%TD*%
M02*
